<svg xmlns="http://www.w3.org/2000/svg" viewBox="0 0 32 32" shape-rendering="crispEdges">
  <rect width="32" height="32" fill="#0b1020"/>
  <g>
    <rect x="4"  y="6"  width="6" height="6" fill="#6dbf3a"/>
    <rect x="10" y="6"  width="6" height="6" fill="#4f9a2a"/>
    <rect x="16" y="6"  width="6" height="6" fill="#6dbf3a"/>
    <rect x="22" y="6"  width="6" height="6" fill="#4f9a2a"/>
    <rect x="4"  y="12" width="6" height="6" fill="#8b5a2b"/>
    <rect x="10" y="12" width="6" height="6" fill="#7a4a22"/>
    <rect x="16" y="12" width="6" height="6" fill="#8b5a2b"/>
    <rect x="22" y="12" width="6" height="6" fill="#7a4a22"/>
    <rect x="4"  y="18" width="6" height="6" fill="#7d7d7d"/>
    <rect x="10" y="18" width="6" height="6" fill="#a8493b"/>
    <rect x="16" y="18" width="6" height="6" fill="#a8493b"/>
    <rect x="22" y="18" width="6" height="6" fill="#7d7d7d"/>
    <rect x="4"  y="24" width="6" height="4" fill="#7d7d7d"/>
    <rect x="10" y="24" width="6" height="4" fill="#fff0a0"/>
    <rect x="16" y="24" width="6" height="4" fill="#fff0a0"/>
    <rect x="22" y="24" width="6" height="4" fill="#7d7d7d"/>
  </g>
</svg>
